<?xml version="1.0" standalone="no"?>
<!DOCTYPE svg PUBLIC "-//W3C//DTD SVG 20010904//EN"
 "http://www.w3.org/TR/2001/REC-SVG-20010904/DTD/svg10.dtd">
<svg version="1.0" xmlns="http://www.w3.org/2000/svg"
 width="660.000000pt" height="660.000000pt" viewBox="0 0 660.000000 660.000000"
 preserveAspectRatio="xMidYMid meet">
<metadata>
Created by potrace 1.11, written by Peter Selinger 2001-2013
</metadata>
<g transform="translate(0.000000,660.000000) scale(0.100000,-0.100000)"
fill="#000000" stroke="none">
<path d="M2990 6084 c0 -6 -39 -78 -86 -160 -47 -82 -96 -167 -109 -189 -12
-22 -43 -75 -68 -117 -25 -43 -43 -78 -39 -78 4 0 2 -4 -3 -8 -6 -4 -24 -29
-40 -57 -17 -27 -35 -59 -42 -70 -7 -11 -16 -27 -20 -35 -10 -21 -142 -250
-161 -280 -9 -14 -17 -27 -17 -30 0 -3 -31 -56 -68 -118 -37 -63 -67 -115 -67
-118 0 -7 -64 -109 -73 -115 -5 -3 -7 -8 -6 -10 2 -2 -17 -38 -41 -79 -23 -41
-50 -88 -59 -105 -9 -16 -18 -32 -21 -35 -3 -3 -10 -14 -16 -25 -12 -23 -40
-72 -110 -195 -27 -47 -52 -86 -56 -88 -4 -2 -8 -12 -8 -22 0 -10 -4 -20 -8
-22 -8 -3 -59 -89 -86 -145 -6 -13 -14 -23 -18 -23 -5 0 -8 -4 -8 -9 0 -8 -80
-150 -242 -426 -16 -27 -32 -58 -35 -67 -3 -10 -9 -18 -14 -18 -5 0 -9 -5 -9
-12 0 -6 -13 -32 -28 -57 -55 -88 -113 -191 -111 -197 0 -4 -3 -10 -8 -13 -4
-3 -14 -17 -22 -31 -8 -14 -37 -63 -64 -110 -27 -47 -60 -103 -72 -125 -13
-22 -72 -125 -133 -230 -60 -104 -118 -206 -128 -225 -10 -19 -21 -37 -24 -40
-3 -3 -11 -16 -18 -29 -38 -66 -56 -99 -146 -253 -53 -92 -96 -172 -96 -177 0
-5 -4 -11 -8 -13 -9 -3 -132 -216 -132 -228 0 -4 -7 -13 -15 -20 -8 -7 -12
-16 -9 -21 3 -5 1 -9 -4 -9 -8 0 -32 -42 -32 -55 0 -3 1301 -5 2891 -5 2635 0
2891 1 2885 16 -3 9 -40 75 -82 147 -42 73 -87 151 -100 174 -13 23 -63 108
-110 190 -48 81 -98 168 -112 192 -58 104 -83 147 -92 161 -6 8 -18 31 -28 50
-9 19 -20 37 -23 40 -3 3 -35 56 -70 118 -35 62 -71 125 -80 140 -27 45 -60
103 -113 197 -27 50 -56 96 -63 103 -7 7 -13 17 -13 22 0 5 -20 43 -45 83 -25
41 -45 78 -45 81 0 4 -13 27 -30 51 -17 24 -30 48 -30 54 0 6 -3 11 -8 11 -4
0 -15 17 -25 38 -9 20 -27 55 -41 77 -90 152 -196 335 -239 415 -16 30 -36 62
-43 71 -8 8 -14 18 -14 22 0 5 -136 244 -210 367 -5 8 -80 138 -167 289 -87
151 -170 295 -185 320 -15 25 -41 71 -58 101 -16 30 -34 62 -40 70 -14 22
-127 217 -200 345 -34 61 -70 121 -78 135 -9 14 -17 27 -17 30 0 5 -26 48
-132 228 -24 41 -43 78 -43 83 0 5 -4 9 -8 9 -4 0 -13 14 -19 30 -6 17 -15 30
-20 30 -8 0 -143 -228 -263 -442 -17 -32 -35 -58 -39 -58 -5 0 -113 181 -269
454 -28 48 -42 65 -42 50z m68 -173 c29 -49 52 -94 52 -100 0 -6 4 -11 9 -11
5 0 12 -9 16 -19 3 -11 30 -60 60 -110 30 -50 55 -95 55 -101 0 -5 5 -10 10
-10 6 0 10 -9 10 -21 0 -18 -20 -56 -104 -199 -15 -25 -32 -57 -39 -72 -6 -16
-15 -28 -19 -28 -4 0 -8 -5 -8 -10 0 -6 -18 -40 -40 -76 -22 -36 -40 -70 -40
-75 0 -5 -4 -9 -8 -9 -4 0 -13 -12 -20 -27 -6 -16 -24 -48 -38 -73 -72 -122
-102 -176 -102 -184 0 -5 -5 -12 -10 -15 -5 -3 -21 -28 -36 -56 -15 -27 -49
-88 -76 -134 -28 -46 -50 -88 -50 -92 0 -5 -3 -9 -7 -9 -5 0 -17 -19 -28 -43
-11 -23 -23 -44 -26 -47 -4 -3 -19 -30 -35 -60 -15 -30 -31 -57 -34 -60 -3 -3
-70 -117 -149 -255 -79 -137 -151 -263 -161 -280 -9 -16 -43 -75 -75 -130 -32
-55 -76 -131 -97 -169 -21 -38 -42 -74 -47 -80 -4 -6 -20 -31 -33 -56 -37 -66
-71 -125 -157 -273 -28 -49 -51 -93 -51 -98 0 -5 -3 -9 -7 -9 -5 0 -13 -10
-19 -23 -5 -12 -54 -98 -108 -192 -55 -93 -108 -186 -119 -205 -19 -34 -54
-94 -90 -155 -10 -16 -20 -38 -23 -47 -4 -10 -10 -18 -15 -18 -5 0 -9 -4 -9
-9 0 -8 -182 -329 -284 -501 -18 -30 -44 -74 -56 -98 l-24 -42 -273 0 c-153 0
-273 4 -273 9 0 5 36 69 79 144 43 74 90 154 104 178 57 100 136 237 165 287
18 29 32 54 32 56 0 2 18 34 40 70 22 36 40 70 40 76 0 5 5 10 10 10 6 0 10 4
10 9 0 5 44 84 98 177 54 93 101 176 105 184 4 8 15 29 26 45 17 28 36 60 80
139 11 19 31 52 44 73 13 21 26 45 30 53 4 8 11 22 17 30 28 44 100 173 100
181 0 5 5 9 10 9 6 0 10 4 10 9 0 5 63 119 141 253 78 133 151 261 164 283 12
22 55 96 95 165 40 69 81 141 92 160 11 19 37 64 58 100 58 99 81 140 114 200
16 30 36 61 43 68 7 7 13 19 13 26 0 8 7 19 15 26 8 7 12 16 9 21 -3 5 -2 9 3
9 4 0 13 10 19 23 6 12 35 63 64 112 29 50 66 115 83 145 16 30 33 60 37 65
10 13 49 82 68 120 9 17 18 32 21 35 7 5 19 27 64 110 17 30 34 57 39 58 4 2
8 8 8 12 0 9 130 240 148 263 5 7 22 37 38 67 16 30 35 61 41 68 7 7 13 17 13
22 0 5 24 49 53 98 30 49 57 97 60 106 4 9 10 16 15 16 4 0 31 -40 60 -89z"/>
</g>
</svg>
