<svg width="286" height="222" viewBox="0 0 286 222" fill="none" xmlns="http://www.w3.org/2000/svg">
<path d="M5 216.223C24.0885 216.223 43.2233 216.594 62.3101 216.223C70 215.212 75 214.712 82 211.712C86.1206 209.946 93.2321 205.68 99.1135 204" stroke="black" stroke-width="10" stroke-linecap="round" stroke-linejoin="round"/>
<path d="M124 190.174C144.436 179.744 165.938 169.577 183.755 155" stroke="black" stroke-width="10" stroke-linecap="round" stroke-linejoin="round"/>
<path d="M205.796 131.329C220.358 119.097 233.229 103.218 233.229 83.118" stroke="black" stroke-width="10" stroke-linecap="round" stroke-linejoin="round"/>
<path d="M233.229 61.1174C231.667 51.3544 232.006 41.6464 232.006 31.7833C232.006 28.3093 234.144 0.903389 224.5 6.83819C217.254 11.2974 211.181 21.5094 205.117 27.5733C197.943 34.7473 192.423 40.6759 184.339 46.4503" stroke="black" stroke-width="10" stroke-linecap="round" stroke-linejoin="round"/>
<path d="M228 6.3382C238.866 9.23573 280.557 28.7869 280.557 47.8948" stroke="black" stroke-width="10" stroke-linecap="round" stroke-linejoin="round"/>
</svg>
