<svg width="497" height="276" viewBox="0 0 497 276" fill="none" xmlns="http://www.w3.org/2000/svg">
<path d="M280.557 216.223C261.468 216.223 242.334 216.594 223.247 216.223C215.557 215.212 210.557 214.712 203.557 211.712C199.436 209.946 192.325 205.68 186.443 204" stroke="black" stroke-width="10" stroke-linecap="round" stroke-linejoin="round"/>
<path d="M161.557 190.174C141.121 179.744 119.619 169.577 101.802 155" stroke="black" stroke-width="10" stroke-linecap="round" stroke-linejoin="round"/>
<path d="M79.7611 131.329C65.1994 119.097 52.3283 103.218 52.3283 83.118" stroke="black" stroke-width="10" stroke-linecap="round" stroke-linejoin="round"/>
<path d="M52.3283 61.1174C53.8903 51.3544 53.5505 41.6464 53.5505 31.7833C53.5505 28.3093 51.4128 0.903389 61.0569 6.83819C68.3031 11.2974 74.3762 21.5094 80.4401 27.5733C87.6141 34.7473 93.1341 40.6759 101.218 46.4503" stroke="black" stroke-width="10" stroke-linecap="round" stroke-linejoin="round"/>
<path d="M57.5569 6.3382C46.6911 9.23573 5.00001 28.7869 5.00001 47.8948" stroke="black" stroke-width="10" stroke-linecap="round" stroke-linejoin="round"/>
<path d="M343.953 141.191C342.566 151.684 340.334 162.306 340.334 172.859" stroke="black" stroke-width="3" stroke-linecap="round" stroke-linejoin="round"/>
<path d="M345.763 109.524C340.527 110.742 331.508 117.264 335.408 123.95C336.402 125.655 339.205 124.887 340.535 124.001C343.048 122.325 342.144 118.478 342.144 115.857C342.144 113.883 342.293 112.674 339.932 113.646C336.347 115.122 334.905 116.918 334.905 120.834C334.905 124.923 333.885 129.464 339.128 130.133C342.644 130.582 356.378 130.968 355.514 124.403C354.98 120.339 344.206 119.73 341.239 120.884C336.994 122.535 337.527 129.717 342.847 128.323C346.067 127.48 347.805 116.535 344.355 115.908C340.354 115.18 334.239 122.896 338.927 124.503C343.493 126.069 348.602 105 339.329 105C332.467 105 332.688 116.164 331.889 121.085C331.3 124.713 329.426 130.793 334.704 130.334C339.297 129.935 343.203 125.231 343.802 120.934C344.104 118.77 343.304 113.804 342.244 118.572C341.839 120.395 343.344 122.247 343.149 120.783C342.952 119.303 335.243 120.934 334.905 123.297C333.645 132.118 345.302 128.668 345.712 121.286C345.824 119.277 346.933 112.589 343.953 112.238C340.158 111.792 338.485 112.678 337.821 116.662C337.39 119.245 337.433 122.246 337.67 124.855C337.903 127.42 340.148 126.715 342.144 126.715C343.474 126.715 347.526 113.428 338.524 118.572" stroke="black" stroke-width="3" stroke-linecap="round" stroke-linejoin="round"/>
<path d="M382.859 146.62C382.696 153.792 381.948 159.731 378.888 166.274C377.72 168.77 376.007 173.707 376.726 168.033C377.526 161.728 383.673 157.584 388.187 153.758C397.944 145.49 396.356 165.268 394.973 170.647C394.494 172.511 391.1 175.863 393.013 176.076C394.628 176.255 398.363 171.385 399.145 170.547C402.719 166.717 406.462 163.245 410.304 159.689C412.605 157.559 415.108 153.445 418.095 152.25C422.161 150.623 420.86 162.626 420.86 164.716C420.86 170.794 418.388 175.268 417.241 181.002" stroke="black" stroke-width="3" stroke-linecap="round" stroke-linejoin="round"/>
<path d="M448.003 162.906C442.933 161.239 429.922 156.67 426.188 163.711C421.778 172.026 429.342 174.399 436.04 172.256C439.39 171.184 440.512 169.482 442.575 166.978C444.921 164.129 444.384 164.441 444.384 168.335C444.384 172.857 443.876 177.211 443.53 181.706C443.095 187.359 450.339 182.032 452.527 181.002" stroke="black" stroke-width="3" stroke-linecap="round" stroke-linejoin="round"/>
<path d="M481.481 139.382C479.616 144.647 478.767 150.147 477.258 155.517C475.562 161.554 472.822 167.845 472.433 174.166C472.274 176.741 472.562 184.484 472.433 181.907C471.98 172.862 464.755 162.427 454.94 168.134C449.315 171.405 459.5 177.241 462.48 177.383C467.008 177.598 472.314 178.51 476.052 181.002" stroke="black" stroke-width="3" stroke-linecap="round" stroke-linejoin="round"/>
<path d="M480.576 177.383C481.634 173.613 482.881 167.041 476.454 170.547C472.647 172.623 477.101 183.099 478.062 185.626C481.028 193.426 488.7 188.24 495.052 188.24" stroke="black" stroke-width="3" stroke-linecap="round" stroke-linejoin="round"/>
<path d="M329.477 204.526C333.996 217.238 331.548 234.552 329.879 247.604C329.209 252.843 327.609 257.905 326.963 263.137C326.756 264.819 327.395 267.093 325.857 267.862" stroke="black" stroke-width="3" stroke-linecap="round" stroke-linejoin="round"/>
<path d="M315 231.67C321.501 231.67 328.002 231.67 334.503 231.67C337.321 231.67 338.636 232.125 340.334 229.86" stroke="black" stroke-width="3" stroke-linecap="round" stroke-linejoin="round"/>
<path d="M348.477 209.955C350.092 227.722 348.255 244.224 345.813 261.729C345.211 266.04 344.79 264.471 345.964 261.83C349.111 254.748 355.786 248.067 361.446 242.93C373.99 231.543 370.524 257.153 369.287 263.338" stroke="black" stroke-width="3" stroke-linecap="round" stroke-linejoin="round"/>
<path d="M384.668 247.051C384.668 252.688 386.389 261.706 383.764 266.957" stroke="black" stroke-width="3" stroke-linecap="round" stroke-linejoin="round"/>
<path d="M381.049 219.908C379.965 221.806 375.821 229.408 379.34 231.167C381.655 232.325 385.725 232.152 385.573 228.956C385.475 226.892 384.018 223.96 381.602 225.839C379.115 227.774 384.289 228.517 385.523 227.9C386.73 227.297 387.227 222.12 385.372 222.12C383.356 222.12 381.389 225.779 379.742 226.845C374.064 230.519 385.127 228.007 381.753 224.633C380.404 223.284 379.679 226.674 380.195 227.448C380.759 228.294 380.759 224.463 379.742 224.432C376.061 224.32 373.649 227.306 375.218 231.117C375.983 232.973 380.529 235.078 380.999 232.022C381.147 231.063 381.661 226.269 380.848 225.538C378.812 223.705 377.964 229.281 378.888 230.514C380.587 232.779 381.954 225.126 381.954 224.432C381.954 222.854 381.443 221.722 379.742 222.723C377.465 224.062 379.375 226.318 380.145 228.051" stroke="black" stroke-width="3" stroke-linecap="round" stroke-linejoin="round"/>
<path d="M409.098 249.766C405.755 245.805 402.745 246.147 398.039 246.147C393.225 246.147 393.697 252.518 396.029 255.697C398.617 259.227 399.145 261.33 399.145 265.6C399.145 269.089 393.594 267.862 391.002 267.862" stroke="black" stroke-width="3" stroke-linecap="round" stroke-linejoin="round"/>
<path d="M435.337 226.241C436.69 233.687 436.241 241.319 436.241 248.861" stroke="black" stroke-width="3" stroke-linecap="round" stroke-linejoin="round"/>
<path d="M458.861 228.956C458.861 238.793 456.993 247.708 454.337 257.004" stroke="black" stroke-width="3" stroke-linecap="round" stroke-linejoin="round"/>
<path d="M427.193 264.242C428.349 270.663 428.732 270.811 434.231 272.888C437.814 274.242 441.724 274.195 445.49 274.195C450.729 274.195 456.004 274.736 460.47 271.481C463.249 269.454 466.508 266.217 469.718 265.147" stroke="black" stroke-width="3" stroke-linecap="round" stroke-linejoin="round"/>
</svg>
