<svg width="220" height="110" viewBox="0 0 220 110" fill="none" xmlns="http://www.w3.org/2000/svg">
<path d="M5.43952 37.5C5.43952 38.7994 4.26273 39.875 2.78226 39.875C1.30178 39.875 0.125 38.7994 0.125 37.5C0.125 36.2006 1.30178 35.125 2.78226 35.125C4.26273 35.125 5.43952 36.2006 5.43952 37.5Z" fill="#040404" stroke="black" stroke-width="0.25"/>
<path d="M36.004 37.5C36.004 38.7994 34.8272 39.875 33.3467 39.875C31.8662 39.875 30.6895 38.7994 30.6895 37.5C30.6895 36.2006 31.8662 35.125 33.3467 35.125C34.8272 35.125 36.004 36.2006 36.004 37.5Z" fill="#040404" stroke="black" stroke-width="0.25"/>
<path d="M66.5684 37.5C66.5684 38.7994 65.3916 39.875 63.9112 39.875C62.4307 39.875 61.2539 38.7994 61.2539 37.5C61.2539 36.2006 62.4307 35.125 63.9112 35.125C65.3916 35.125 66.5684 36.2006 66.5684 37.5Z" fill="#040404" stroke="black" stroke-width="0.25"/>
<path d="M97.1329 37.5C97.1329 38.7994 95.9561 39.875 94.4756 39.875C92.9951 39.875 91.8184 38.7994 91.8184 37.5C91.8184 36.2006 92.9951 35.125 94.4756 35.125C95.9561 35.125 97.1329 36.2006 97.1329 37.5Z" fill="#040404" stroke="black" stroke-width="0.25"/>
<path d="M5.43952 107.5C5.43952 108.799 4.26273 109.875 2.78226 109.875C1.30178 109.875 0.125 108.799 0.125 107.5C0.125 106.201 1.30178 105.125 2.78226 105.125C4.26273 105.125 5.43952 106.201 5.43952 107.5Z" fill="#040404" stroke="black" stroke-width="0.25"/>
<path d="M36.004 107.5C36.004 108.799 34.8272 109.875 33.3467 109.875C31.8662 109.875 30.6895 108.799 30.6895 107.5C30.6895 106.201 31.8662 105.125 33.3467 105.125C34.8272 105.125 36.004 106.201 36.004 107.5Z" fill="#040404" stroke="black" stroke-width="0.25"/>
<path d="M66.5684 107.5C66.5684 108.799 65.3916 109.875 63.9112 109.875C62.4307 109.875 61.2539 108.799 61.2539 107.5C61.2539 106.201 62.4307 105.125 63.9112 105.125C65.3916 105.125 66.5684 106.201 66.5684 107.5Z" fill="#040404" stroke="black" stroke-width="0.25"/>
<path d="M97.1329 107.5C97.1329 108.799 95.9561 109.875 94.4756 109.875C92.9951 109.875 91.8184 108.799 91.8184 107.5C91.8184 106.201 92.9951 105.125 94.4756 105.125C95.9561 105.125 97.1329 106.201 97.1329 107.5Z" fill="#040404" stroke="black" stroke-width="0.25"/>
<path d="M5.43952 72.5C5.43952 73.7994 4.26273 74.875 2.78226 74.875C1.30178 74.875 0.125 73.7994 0.125 72.5C0.125 71.2006 1.30178 70.125 2.78226 70.125C4.26273 70.125 5.43952 71.2006 5.43952 72.5Z" fill="#040404" stroke="black" stroke-width="0.25"/>
<path d="M36.004 72.5C36.004 73.7994 34.8272 74.875 33.3467 74.875C31.8662 74.875 30.6895 73.7994 30.6895 72.5C30.6895 71.2006 31.8662 70.125 33.3467 70.125C34.8272 70.125 36.004 71.2006 36.004 72.5Z" fill="#040404" stroke="black" stroke-width="0.25"/>
<path d="M66.5684 72.5C66.5684 73.7994 65.3916 74.875 63.9112 74.875C62.4307 74.875 61.2539 73.7994 61.2539 72.5C61.2539 71.2006 62.4307 70.125 63.9112 70.125C65.3916 70.125 66.5684 71.2006 66.5684 72.5Z" fill="#040404" stroke="black" stroke-width="0.25"/>
<path d="M97.1329 72.5C97.1329 73.7994 95.9561 74.875 94.4756 74.875C92.9951 74.875 91.8184 73.7994 91.8184 72.5C91.8184 71.2006 92.9951 70.125 94.4756 70.125C95.9561 70.125 97.1329 71.2006 97.1329 72.5Z" fill="#040404" stroke="black" stroke-width="0.25"/>
<path d="M127.697 37.5C127.697 38.7994 126.521 39.875 125.04 39.875C123.56 39.875 122.383 38.7994 122.383 37.5C122.383 36.2006 123.56 35.125 125.04 35.125C126.521 35.125 127.697 36.2006 127.697 37.5Z" fill="#040404" stroke="black" stroke-width="0.25"/>
<path d="M158.262 37.5C158.262 38.7994 157.085 39.875 155.605 39.875C154.124 39.875 152.947 38.7994 152.947 37.5C152.947 36.2006 154.124 35.125 155.605 35.125C157.085 35.125 158.262 36.2006 158.262 37.5Z" fill="#040404" stroke="black" stroke-width="0.25"/>
<path d="M188.826 37.5C188.826 38.7994 187.649 39.875 186.169 39.875C184.689 39.875 183.512 38.7994 183.512 37.5C183.512 36.2006 184.689 35.125 186.169 35.125C187.649 35.125 188.826 36.2006 188.826 37.5Z" fill="#040404" stroke="black" stroke-width="0.25"/>
<path d="M219.391 37.5C219.391 38.7994 218.214 39.875 216.733 39.875C215.253 39.875 214.076 38.7994 214.076 37.5C214.076 36.2006 215.253 35.125 216.733 35.125C218.214 35.125 219.391 36.2006 219.391 37.5Z" fill="#040404" stroke="black" stroke-width="0.25"/>
<path d="M5.43952 2.5C5.43952 3.79944 4.26273 4.875 2.78226 4.875C1.30178 4.875 0.125 3.79944 0.125 2.5C0.125 1.20056 1.30178 0.125 2.78226 0.125C4.26273 0.125 5.43952 1.20056 5.43952 2.5Z" fill="#040404" stroke="black" stroke-width="0.25"/>
<path d="M36.004 2.5C36.004 3.79944 34.8272 4.875 33.3467 4.875C31.8662 4.875 30.6895 3.79944 30.6895 2.5C30.6895 1.20056 31.8662 0.125 33.3467 0.125C34.8272 0.125 36.004 1.20056 36.004 2.5Z" fill="#040404" stroke="black" stroke-width="0.25"/>
<path d="M66.5684 2.5C66.5684 3.79944 65.3916 4.875 63.9112 4.875C62.4307 4.875 61.2539 3.79944 61.2539 2.5C61.2539 1.20056 62.4307 0.125 63.9112 0.125C65.3916 0.125 66.5684 1.20056 66.5684 2.5Z" fill="#040404" stroke="black" stroke-width="0.25"/>
<path d="M97.1329 2.5C97.1329 3.79944 95.9561 4.875 94.4756 4.875C92.9951 4.875 91.8184 3.79944 91.8184 2.5C91.8184 1.20056 92.9951 0.125 94.4756 0.125C95.9561 0.125 97.1329 1.20056 97.1329 2.5Z" fill="#040404" stroke="black" stroke-width="0.25"/>
<path d="M127.697 2.5C127.697 3.79944 126.521 4.875 125.04 4.875C123.56 4.875 122.383 3.79944 122.383 2.5C122.383 1.20056 123.56 0.125 125.04 0.125C126.521 0.125 127.697 1.20056 127.697 2.5Z" fill="#040404" stroke="black" stroke-width="0.25"/>
<path d="M158.262 2.5C158.262 3.79944 157.085 4.875 155.605 4.875C154.124 4.875 152.947 3.79944 152.947 2.5C152.947 1.20056 154.124 0.125 155.605 0.125C157.085 0.125 158.262 1.20056 158.262 2.5Z" fill="#040404" stroke="black" stroke-width="0.25"/>
<path d="M188.826 2.5C188.826 3.79944 187.649 4.875 186.169 4.875C184.689 4.875 183.512 3.79944 183.512 2.5C183.512 1.20056 184.689 0.125 186.169 0.125C187.649 0.125 188.826 1.20056 188.826 2.5Z" fill="#040404" stroke="black" stroke-width="0.25"/>
<path d="M219.391 2.5C219.391 3.79944 218.214 4.875 216.733 4.875C215.253 4.875 214.076 3.79944 214.076 2.5C214.076 1.20056 215.253 0.125 216.733 0.125C218.214 0.125 219.391 1.20056 219.391 2.5Z" fill="#040404" stroke="black" stroke-width="0.25"/>
<path d="M127.697 107.5C127.697 108.799 126.521 109.875 125.04 109.875C123.56 109.875 122.383 108.799 122.383 107.5C122.383 106.201 123.56 105.125 125.04 105.125C126.521 105.125 127.697 106.201 127.697 107.5Z" fill="#040404" stroke="black" stroke-width="0.25"/>
<path d="M158.262 107.5C158.262 108.799 157.085 109.875 155.605 109.875C154.124 109.875 152.947 108.799 152.947 107.5C152.947 106.201 154.124 105.125 155.605 105.125C157.085 105.125 158.262 106.201 158.262 107.5Z" fill="#040404" stroke="black" stroke-width="0.25"/>
<path d="M188.826 107.5C188.826 108.799 187.649 109.875 186.169 109.875C184.689 109.875 183.512 108.799 183.512 107.5C183.512 106.201 184.689 105.125 186.169 105.125C187.649 105.125 188.826 106.201 188.826 107.5Z" fill="#040404" stroke="black" stroke-width="0.25"/>
<path d="M219.391 107.5C219.391 108.799 218.214 109.875 216.733 109.875C215.253 109.875 214.076 108.799 214.076 107.5C214.076 106.201 215.253 105.125 216.733 105.125C218.214 105.125 219.391 106.201 219.391 107.5Z" fill="#040404" stroke="black" stroke-width="0.25"/>
<path d="M127.697 72.5C127.697 73.7994 126.521 74.875 125.04 74.875C123.56 74.875 122.383 73.7994 122.383 72.5C122.383 71.2006 123.56 70.125 125.04 70.125C126.521 70.125 127.697 71.2006 127.697 72.5Z" fill="#040404" stroke="black" stroke-width="0.25"/>
<path d="M158.262 72.5C158.262 73.7994 157.085 74.875 155.605 74.875C154.124 74.875 152.947 73.7994 152.947 72.5C152.947 71.2006 154.124 70.125 155.605 70.125C157.085 70.125 158.262 71.2006 158.262 72.5Z" fill="#040404" stroke="black" stroke-width="0.25"/>
<path d="M188.826 72.5C188.826 73.7994 187.649 74.875 186.169 74.875C184.689 74.875 183.512 73.7994 183.512 72.5C183.512 71.2006 184.689 70.125 186.169 70.125C187.649 70.125 188.826 71.2006 188.826 72.5Z" fill="#040404" stroke="black" stroke-width="0.25"/>
<path d="M219.391 72.5C219.391 73.7994 218.214 74.875 216.733 74.875C215.253 74.875 214.076 73.7994 214.076 72.5C214.076 71.2006 215.253 70.125 216.733 70.125C218.214 70.125 219.391 71.2006 219.391 72.5Z" fill="#040404" stroke="black" stroke-width="0.25"/>
</svg>
