<svg width="360" height="320" viewBox="0 0 360 320" fill="none" xmlns="http://www.w3.org/2000/svg">
<rect width="360" height="320" fill="white"/>
<line x1="209.004" y1="82.7801" x2="52.639" y2="213.986" stroke="black"/>
<line x1="279.686" y1="82.383" x2="123.321" y2="213.589" stroke="black"/>
<path d="M103.629 213.87C108.829 207.673 111.354 199.665 110.649 191.607C109.944 183.548 106.067 176.1 99.87 170.901C93.6733 165.701 85.665 163.176 77.6067 163.881C69.5484 164.586 62.1002 168.463 56.9006 174.66" stroke="#CE8C8C"/>
<circle cx="192.5" cy="222.5" r="2.375" fill="#040404" stroke="black" stroke-width="0.25"/>
<circle cx="209.5" cy="222.5" r="2.375" fill="#040404" stroke="black" stroke-width="0.25"/>
<circle cx="226.5" cy="222.5" r="2.375" fill="#040404" stroke="black" stroke-width="0.25"/>
<circle cx="243.5" cy="222.5" r="2.375" fill="#040404" stroke="black" stroke-width="0.25"/>
<circle cx="192.5" cy="270.5" r="2.375" fill="#040404" stroke="black" stroke-width="0.25"/>
<circle cx="209.5" cy="270.5" r="2.375" fill="#040404" stroke="black" stroke-width="0.25"/>
<circle cx="226.5" cy="270.5" r="2.375" fill="#040404" stroke="black" stroke-width="0.25"/>
<circle cx="243.5" cy="270.5" r="2.375" fill="#040404" stroke="black" stroke-width="0.25"/>
<circle cx="192.5" cy="246.5" r="2.375" fill="#040404" stroke="black" stroke-width="0.25"/>
<circle cx="209.5" cy="246.5" r="2.375" fill="#040404" stroke="black" stroke-width="0.25"/>
<circle cx="226.5" cy="246.5" r="2.375" fill="#040404" stroke="black" stroke-width="0.25"/>
<circle cx="243.5" cy="246.5" r="2.375" fill="#040404" stroke="black" stroke-width="0.25"/>
<circle cx="260.5" cy="222.5" r="2.375" fill="#040404" stroke="black" stroke-width="0.25"/>
<circle cx="277.5" cy="222.5" r="2.375" fill="#040404" stroke="black" stroke-width="0.25"/>
<circle cx="294.5" cy="222.5" r="2.375" fill="#040404" stroke="black" stroke-width="0.25"/>
<circle cx="311.5" cy="222.5" r="2.375" fill="#040404" stroke="black" stroke-width="0.25"/>
<circle cx="192.5" cy="198.5" r="2.375" fill="#040404" stroke="black" stroke-width="0.25"/>
<circle cx="209.5" cy="198.5" r="2.375" fill="#040404" stroke="black" stroke-width="0.25"/>
<circle cx="226.5" cy="198.5" r="2.375" fill="#040404" stroke="black" stroke-width="0.25"/>
<circle cx="243.5" cy="198.5" r="2.375" fill="#040404" stroke="black" stroke-width="0.25"/>
<circle cx="260.5" cy="198.5" r="2.375" fill="#040404" stroke="black" stroke-width="0.25"/>
<circle cx="277.5" cy="198.5" r="2.375" fill="#040404" stroke="black" stroke-width="0.25"/>
<circle cx="294.5" cy="198.5" r="2.375" fill="#040404" stroke="black" stroke-width="0.25"/>
<circle cx="311.5" cy="198.5" r="2.375" fill="#040404" stroke="black" stroke-width="0.25"/>
<circle cx="260.5" cy="270.5" r="2.375" fill="#040404" stroke="black" stroke-width="0.25"/>
<circle cx="277.5" cy="270.5" r="2.375" fill="#040404" stroke="black" stroke-width="0.25"/>
<circle cx="294.5" cy="270.5" r="2.375" fill="#040404" stroke="black" stroke-width="0.25"/>
<circle cx="311.5" cy="270.5" r="2.375" fill="#040404" stroke="black" stroke-width="0.25"/>
<circle cx="260.5" cy="246.5" r="2.375" fill="#040404" stroke="black" stroke-width="0.25"/>
<circle cx="277.5" cy="246.5" r="2.375" fill="#040404" stroke="black" stroke-width="0.25"/>
<circle cx="294.5" cy="246.5" r="2.375" fill="#040404" stroke="black" stroke-width="0.25"/>
<circle cx="311.5" cy="246.5" r="2.375" fill="#040404" stroke="black" stroke-width="0.25"/>
<line x1="72.0673" y1="114.505" x2="234.067" y2="136.505" stroke="black"/>
<line x1="131.067" y1="88.5045" x2="293.067" y2="110.505" stroke="black"/>
<path d="M92.5 50C92.5 59.0292 83.6374 66.5 72.5 66.5C61.3626 66.5 52.5 59.0292 52.5 50C52.5 40.9708 61.3626 33.5 72.5 33.5C83.6374 33.5 92.5 40.9708 92.5 50Z" fill="#C8E5F1" stroke="black"/>
<path d="M51.9235 247H129L116.568 269H38L51.9235 247Z" fill="#FFEBC3"/>
</svg>
