<svg width="360" height="320" viewBox="0 0 360 320" fill="none" xmlns="http://www.w3.org/2000/svg">
<rect width="360" height="320" fill="white"/>
<path d="M200.289 62.7878C219.541 70.7208 235.446 85.0835 245.295 103.429C255.144 121.774 258.327 142.967 254.303 163.396C250.278 183.825 239.294 202.227 223.223 215.466C207.152 228.705 186.987 235.962 166.165 236C145.343 236.038 125.152 228.855 109.032 215.676C92.9125 202.496 81.8613 184.134 77.7617 163.72C73.6621 143.306 76.7677 122.101 86.5494 103.72C96.3311 85.3387 112.184 70.9177 131.406 62.9142L166 146L200.289 62.7878Z" fill="#ACFF97"/>
<mask id="path-2-inside-1" fill="white">
<path d="M216.289 62.7878C235.541 70.7208 251.446 85.0835 261.295 103.429C271.144 121.774 274.327 142.967 270.303 163.396C266.278 183.825 255.294 202.227 239.223 215.466C223.152 228.705 202.987 235.962 182.165 236C161.343 236.038 141.152 228.855 125.032 215.676C108.913 202.496 97.8613 184.134 93.7617 163.72C89.6621 143.306 92.7677 122.101 102.549 103.72C112.331 85.3387 128.184 70.9177 147.406 62.9142L182 146L216.289 62.7878Z"/>
</mask>
<path d="M216.289 62.7878C235.541 70.7208 251.446 85.0835 261.295 103.429C271.144 121.774 274.327 142.967 270.303 163.396C266.278 183.825 255.294 202.227 239.223 215.466C223.152 228.705 202.987 235.962 182.165 236C161.343 236.038 141.152 228.855 125.032 215.676C108.913 202.496 97.8613 184.134 93.7617 163.72C89.6621 143.306 92.7677 122.101 102.549 103.72C112.331 85.3387 128.184 70.9177 147.406 62.9142L182 146L216.289 62.7878Z" stroke="black" stroke-width="2" mask="url(#path-2-inside-1)"/>
</svg>
