<svg width="196" height="180" viewBox="0 0 196 180" fill="none" xmlns="http://www.w3.org/2000/svg">
<path d="M124.289 6.78783C143.541 14.7208 159.446 29.0835 169.295 47.4288C179.144 65.7741 182.327 86.9669 178.303 107.396C174.278 127.825 163.294 146.227 147.223 159.466C131.152 172.705 110.987 179.962 90.1651 180C69.3432 180.038 49.1522 172.855 33.0323 159.676C16.9125 146.496 5.86132 128.134 1.76169 107.72C-2.33794 87.3057 0.767671 66.1013 10.5494 47.72C20.3311 29.3387 36.1836 14.9177 55.4059 6.91419L90 90L124.289 6.78783Z" fill="#ACFF97"/>
<mask id="path-2-inside-1" fill="white">
<path d="M140.289 6.78783C159.541 14.7208 175.446 29.0835 185.295 47.4288C195.144 65.7741 198.327 86.9669 194.303 107.396C190.278 127.825 179.294 146.227 163.223 159.466C147.152 172.705 126.987 179.962 106.165 180C85.3432 180.038 65.1522 172.855 49.0323 159.676C32.9125 146.496 21.8613 128.134 17.7617 107.72C13.6621 87.3057 16.7677 66.1013 26.5494 47.72C36.3311 29.3387 52.1836 14.9177 71.4059 6.91419L106 90L140.289 6.78783Z"/>
</mask>
<path d="M140.289 6.78783C159.541 14.7208 175.446 29.0835 185.295 47.4288C195.144 65.7741 198.327 86.9669 194.303 107.396C190.278 127.825 179.294 146.227 163.223 159.466C147.152 172.705 126.987 179.962 106.165 180C85.3432 180.038 65.1522 172.855 49.0323 159.676C32.9125 146.496 21.8613 128.134 17.7617 107.72C13.6621 87.3057 16.7677 66.1013 26.5494 47.72C36.3311 29.3387 52.1836 14.9177 71.4059 6.91419L106 90L140.289 6.78783Z" stroke="black" stroke-width="2" mask="url(#path-2-inside-1)"/>
</svg>
