<svg width="194" height="193" viewBox="0 0 194 193" fill="none" xmlns="http://www.w3.org/2000/svg">
<path d="M193 105.5C193 89.7108 188.313 74.2157 179.435 60.6576C170.557 47.0994 157.82 35.9834 142.573 28.4879C127.326 20.9925 110.139 17.397 92.8318 18.0825C75.5251 18.7681 58.7444 23.7092 44.2686 32.382C29.7929 41.0548 18.1615 53.1361 10.6077 67.3451C3.0539 81.5542 -0.140918 97.3614 1.36196 113.091C2.86483 128.821 9.0094 143.887 19.1442 156.692C29.2791 169.497 43.0265 179.564 58.9292 185.825L97 105.5H193Z" fill="#FFE6A4"/>
<path d="M193 88.5C193 72.7101 188.312 57.2145 179.434 43.6559C170.555 30.0974 157.817 18.9813 142.569 11.4862C127.322 3.99101 110.133 0.396167 92.8256 1.08276C75.5182 1.76936 58.7372 6.71179 44.2617 15.3861C29.7862 24.0604 18.1557 36.1432 10.6032 50.3536C3.05078 64.5639 -0.142128 80.3722 1.36303 96.1024C2.86819 111.833 9.01531 126.898 19.1527 139.703C29.29 152.507 43.0398 162.572 58.9443 168.831L97 88.5H193Z" stroke="black" stroke-width="1.25"/>
</svg>
