<svg width="360" height="320" viewBox="0 0 360 320" fill="none" xmlns="http://www.w3.org/2000/svg">
<g clip-path="url(#clip0)">
<rect width="360" height="320" fill="white"/>
<path d="M156.811 38.8774C167.285 21.3185 192.715 21.3185 203.189 38.8774L238.145 97.4838C240.897 102.098 244.963 105.786 249.823 108.077L308.175 135.576C328.828 145.31 328.828 174.69 308.175 184.424L249.823 211.923C244.963 214.214 240.897 217.902 238.145 222.516L203.189 281.123C192.715 298.681 167.285 298.681 156.811 281.123L121.855 222.516C119.103 217.902 115.037 214.214 110.177 211.923L51.825 184.424C31.1719 174.69 31.172 145.31 51.8251 135.576L110.177 108.077C115.037 105.786 119.103 102.098 121.855 97.4838L156.811 38.8774Z" fill="#FAE680"/>
<path d="M202.759 27.1335L237.715 85.74C240.518 90.4396 244.66 94.1962 249.61 96.529L307.962 124.029C328.232 133.582 328.232 162.418 307.962 171.971L249.61 199.471C244.66 201.804 240.518 205.56 237.715 210.26L202.759 268.867C192.48 286.1 167.52 286.1 157.241 268.867L122.285 210.26C119.482 205.56 115.34 201.804 110.39 199.471L52.0382 171.971C31.7676 162.418 31.7676 133.582 52.0382 124.029L110.39 96.5289C115.34 94.1962 119.482 90.4396 122.285 85.74L157.241 27.1335C167.52 9.89981 192.48 9.8998 202.759 27.1335Z" stroke="black"/>
</g>
<defs>
<clipPath id="clip0">
<rect width="360" height="320" fill="white"/>
</clipPath>
</defs>
</svg>
