<svg width="360" height="320" viewBox="0 0 360 320" fill="none" xmlns="http://www.w3.org/2000/svg">
<g clip-path="url(#clip0)">
<rect width="360" height="320" fill="white"/>
<circle cx="215" cy="130" r="4.75" fill="#7579E3" stroke="black" stroke-width="0.5"/>
<circle cx="232" cy="130" r="4.75" fill="#7579E3" stroke="black" stroke-width="0.5"/>
<circle cx="249" cy="130" r="4.75" stroke="black" stroke-width="0.5"/>
<circle cx="266" cy="130" r="4.75" stroke="black" stroke-width="0.5"/>
<circle cx="215" cy="178" r="4.75" fill="#7579E3" stroke="black" stroke-width="0.5"/>
<circle cx="232" cy="178" r="4.75" fill="#7579E3" stroke="black" stroke-width="0.5"/>
<circle cx="249" cy="178" r="4.75" stroke="black" stroke-width="0.5"/>
<circle cx="266" cy="178" r="4.75" stroke="black" stroke-width="0.5"/>
<circle cx="215" cy="154" r="4.75" fill="#7579E3" stroke="black" stroke-width="0.5"/>
<circle cx="232" cy="154" r="4.75" fill="#7579E3" stroke="black" stroke-width="0.5"/>
<circle cx="249" cy="154" r="4.75" stroke="black" stroke-width="0.5"/>
<circle cx="266" cy="154" r="4.75" stroke="black" stroke-width="0.5"/>
<circle cx="147" cy="130" r="4.75" fill="#7579E3" stroke="black" stroke-width="0.5"/>
<circle cx="164" cy="130" r="4.75" fill="#7579E3" stroke="black" stroke-width="0.5"/>
<circle cx="181" cy="130" r="4.75" fill="#7579E3" stroke="black" stroke-width="0.5"/>
<circle cx="198" cy="130" r="4.75" fill="#7579E3" stroke="black" stroke-width="0.5"/>
<circle cx="147" cy="178" r="4.75" fill="#7579E3" stroke="black" stroke-width="0.5"/>
<circle cx="164" cy="178" r="4.75" fill="#7579E3" stroke="black" stroke-width="0.5"/>
<circle cx="181" cy="178" r="4.75" fill="#7579E3" stroke="black" stroke-width="0.5"/>
<circle cx="198" cy="178" r="4.75" fill="#7579E3" stroke="black" stroke-width="0.5"/>
<circle cx="147" cy="154" r="4.75" fill="#7579E3" stroke="black" stroke-width="0.5"/>
<circle cx="164" cy="154" r="4.75" fill="#7579E3" stroke="black" stroke-width="0.5"/>
<circle cx="181" cy="154" r="4.75" fill="#7579E3" stroke="black" stroke-width="0.5"/>
<circle cx="198" cy="154" r="4.75" fill="#7579E3" stroke="black" stroke-width="0.5"/>
<circle cx="147" cy="202" r="4.75" stroke="black" stroke-width="0.5"/>
<circle cx="164" cy="202" r="4.75" stroke="black" stroke-width="0.5"/>
<circle cx="181" cy="202" r="4.75" stroke="black" stroke-width="0.5"/>
<circle cx="198" cy="202" r="4.75" stroke="black" stroke-width="0.5"/>
<circle cx="147" cy="250" r="4.75" stroke="black" stroke-width="0.5"/>
<circle cx="164" cy="250" r="4.75" stroke="black" stroke-width="0.5"/>
<circle cx="181" cy="250" r="4.75" fill="#93DEAD" stroke="black" stroke-width="0.5"/>
<circle cx="198" cy="250" r="4.75" fill="#93DEAD" stroke="black" stroke-width="0.5"/>
<circle cx="147" cy="226" r="4.75" stroke="black" stroke-width="0.5"/>
<circle cx="164" cy="226" r="4.75" stroke="black" stroke-width="0.5"/>
<circle cx="181" cy="226" r="4.75" stroke="black" stroke-width="0.5"/>
<circle cx="198" cy="226" r="4.75" stroke="black" stroke-width="0.5"/>
<circle cx="215" cy="202" r="4.75" stroke="black" stroke-width="0.5"/>
<circle cx="232" cy="202" r="4.75" stroke="black" stroke-width="0.5"/>
<circle cx="249" cy="202" r="4.75" stroke="black" stroke-width="0.5"/>
<circle cx="266" cy="202" r="4.75" stroke="black" stroke-width="0.5"/>
<circle cx="215" cy="250" r="4.75" fill="#93DEAD" stroke="black" stroke-width="0.5"/>
<circle cx="232" cy="250" r="4.75" fill="#93DEAD" stroke="black" stroke-width="0.5"/>
<circle cx="249" cy="250" r="4.75" fill="#93DEAD" stroke="black" stroke-width="0.5"/>
<circle cx="266" cy="250" r="4.75" fill="#93DEAD" stroke="black" stroke-width="0.5"/>
<circle cx="215" cy="226" r="4.75" stroke="black" stroke-width="0.5"/>
<circle cx="232" cy="226" r="4.75" stroke="black" stroke-width="0.5"/>
<circle cx="249" cy="226" r="4.75" stroke="black" stroke-width="0.5"/>
<circle cx="266" cy="226" r="4.75" stroke="black" stroke-width="0.5"/>
<circle cx="147" cy="106" r="4.75" fill="#7579E3" stroke="black" stroke-width="0.5"/>
<circle cx="164" cy="106" r="4.75" fill="#7579E3" stroke="black" stroke-width="0.5"/>
<circle cx="181" cy="106" r="4.75" fill="#7579E3" stroke="black" stroke-width="0.5"/>
<circle cx="198" cy="106" r="4.75" fill="#7579E3" stroke="black" stroke-width="0.5"/>
<circle cx="96" cy="130" r="4.75" stroke="black" stroke-width="0.5"/>
<circle cx="113" cy="130" r="4.75" stroke="black" stroke-width="0.5"/>
<circle cx="130" cy="130" r="4.75" fill="#7579E3" stroke="black" stroke-width="0.5"/>
<circle cx="96" cy="178" r="4.75" stroke="black" stroke-width="0.5"/>
<circle cx="113" cy="178" r="4.75" stroke="black" stroke-width="0.5"/>
<circle cx="130" cy="178" r="4.75" fill="#7579E3" stroke="black" stroke-width="0.5"/>
<circle cx="96" cy="154" r="4.75" stroke="black" stroke-width="0.5"/>
<circle cx="113" cy="154" r="4.75" stroke="black" stroke-width="0.5"/>
<circle cx="130" cy="154" r="4.75" fill="#7579E3" stroke="black" stroke-width="0.5"/>
<circle cx="96" cy="202" r="4.75" stroke="black" stroke-width="0.5"/>
<circle cx="113" cy="202" r="4.75" stroke="black" stroke-width="0.5"/>
<circle cx="130" cy="202" r="4.75" stroke="black" stroke-width="0.5"/>
<circle cx="96" cy="250" r="4.75" fill="#E4C0F5" stroke="black" stroke-width="0.5"/>
<circle cx="113" cy="250" r="4.75" fill="#E4C0F5" stroke="black" stroke-width="0.5"/>
<circle cx="130" cy="250" r="4.75" stroke="black" stroke-width="0.5"/>
<circle cx="96" cy="226" r="4.75" fill="#E4C0F5" stroke="black" stroke-width="0.5"/>
<circle cx="113" cy="226" r="4.75" fill="#E4C0F5" stroke="black" stroke-width="0.5"/>
<circle cx="130" cy="226" r="4.75" stroke="black" stroke-width="0.5"/>
<circle cx="96" cy="106" r="4.75" stroke="black" stroke-width="0.5"/>
<circle cx="113" cy="106" r="4.75" stroke="black" stroke-width="0.5"/>
<circle cx="130" cy="106" r="4.75" fill="#7579E3" stroke="black" stroke-width="0.5"/>
<circle cx="215" cy="106" r="4.75" fill="#7579E3" stroke="black" stroke-width="0.5"/>
<circle cx="232" cy="106" r="4.75" fill="#7579E3" stroke="black" stroke-width="0.5"/>
<circle cx="249" cy="106" r="4.75" stroke="black" stroke-width="0.5"/>
<circle cx="266" cy="106" r="4.75" stroke="black" stroke-width="0.5"/>
<rect x="125" y="30" width="112" height="64" fill="#7579E3"/>
<rect x="43" y="221" width="44" height="38" fill="#E4C0F5"/>
<rect x="43" y="259" width="75" height="30" fill="#E4C0F5"/>
<rect x="278" y="245" width="44" height="13" fill="#93DEAD"/>
</g>
<defs>
<clipPath id="clip0">
<rect width="360" height="320" fill="white"/>
</clipPath>
</defs>
</svg>
