<svg width="492" height="259" viewBox="0 0 492 259" fill="none" xmlns="http://www.w3.org/2000/svg">
<path d="M30.9531 124.191C29.5657 134.684 27.334 145.306 27.334 155.859" stroke="black" stroke-width="3" stroke-linecap="round" stroke-linejoin="round"/>
<path d="M32.7627 92.5239C27.5269 93.7416 18.5078 100.264 22.408 106.95C23.4023 108.655 26.205 107.887 27.5351 107.001C30.0482 105.325 29.1436 101.478 29.1436 98.8574C29.1436 96.8834 29.2925 95.6737 26.9319 96.6457C23.3469 98.1219 21.9053 99.9185 21.9053 103.834C21.9053 107.923 20.8846 112.464 26.1276 113.133C29.644 113.582 43.3781 113.968 42.5143 107.403C41.9797 103.339 31.2061 102.73 28.2388 103.884C23.9938 105.535 24.527 112.717 29.8473 111.323C33.0666 110.48 34.8054 99.535 31.3553 98.9077C27.3538 98.1802 21.2392 105.896 25.9266 107.503C30.4931 109.069 35.6018 88 26.3287 88C19.4665 88 19.6883 99.1637 18.8893 104.085C18.3003 107.713 16.4262 113.793 21.7042 113.334C26.297 112.935 30.2028 108.231 30.8024 103.934C31.1043 101.77 30.3037 96.8038 29.2441 101.572C28.8389 103.395 30.3441 105.247 30.1489 103.783C29.9516 102.303 22.2429 103.934 21.9053 106.297C20.6451 115.118 32.3024 111.668 32.7125 104.286C32.8241 102.277 33.9326 95.5888 30.9532 95.2383C27.1582 94.7918 25.4847 95.6778 24.8207 99.6617C24.3901 102.245 24.4327 105.246 24.6699 107.855C24.9031 110.42 27.1483 109.715 29.1436 109.715C30.474 109.715 34.5255 96.4283 25.5244 101.572" stroke="black" stroke-width="3" stroke-linecap="round" stroke-linejoin="round"/>
<path d="M69.8588 129.62C69.6959 136.792 68.9483 142.731 65.8878 149.274C64.7203 151.77 63.0072 156.707 63.7264 151.033C64.5257 144.728 70.6725 140.584 75.187 136.758C84.9436 128.49 83.356 148.268 81.9729 153.647C81.4938 155.511 78.1004 158.863 80.0126 159.076C81.6284 159.255 85.363 154.385 86.145 153.547C89.7193 149.717 93.4619 146.245 97.304 142.689C99.6052 140.559 102.108 136.445 105.095 135.25C109.161 133.623 107.86 145.626 107.86 147.716C107.86 153.794 105.388 158.268 104.241 164.002" stroke="black" stroke-width="3" stroke-linecap="round" stroke-linejoin="round"/>
<path d="M135.003 145.906C129.933 144.239 116.922 139.67 113.188 146.711C108.778 155.026 116.342 157.399 123.04 155.256C126.39 154.184 127.512 152.482 129.575 149.978C131.921 147.129 131.384 147.441 131.384 151.335C131.384 155.857 130.876 160.211 130.53 164.706C130.095 170.359 137.339 165.032 139.527 164.002" stroke="black" stroke-width="3" stroke-linecap="round" stroke-linejoin="round"/>
<path d="M168.481 122.382C166.616 127.647 165.767 133.147 164.258 138.517C162.562 144.554 159.822 150.845 159.433 157.166C159.274 159.741 159.562 167.484 159.433 164.907C158.98 155.862 151.755 145.427 141.94 151.134C136.315 154.405 146.5 160.241 149.48 160.383C154.008 160.598 159.314 161.51 163.052 164.002" stroke="black" stroke-width="3" stroke-linecap="round" stroke-linejoin="round"/>
<path d="M167.576 160.383C168.634 156.613 169.881 150.041 163.454 153.547C159.647 155.623 164.101 166.099 165.062 168.626C168.028 176.426 175.7 171.24 182.052 171.24" stroke="black" stroke-width="3" stroke-linecap="round" stroke-linejoin="round"/>
<path d="M16.4766 187.526C20.9963 200.238 18.5482 217.552 16.8787 230.604C16.2086 235.843 14.6092 240.905 13.9633 246.137C13.7556 247.819 14.3951 250.093 12.8574 250.862" stroke="black" stroke-width="3" stroke-linecap="round" stroke-linejoin="round"/>
<path d="M2 214.67C8.50106 214.67 15.0021 214.67 21.5032 214.67C24.3205 214.67 25.6358 215.125 27.334 212.86" stroke="black" stroke-width="3" stroke-linecap="round" stroke-linejoin="round"/>
<path d="M35.477 192.955C37.0922 210.722 35.2555 227.224 32.8129 244.729C32.2114 249.04 31.7898 247.471 32.9637 244.83C36.1112 237.748 42.7863 231.067 48.4456 225.93C60.9897 214.543 57.524 240.153 56.2871 246.338" stroke="black" stroke-width="3" stroke-linecap="round" stroke-linejoin="round"/>
<path d="M71.6685 230.051C71.6685 235.688 73.3889 244.706 70.7637 249.957" stroke="black" stroke-width="3" stroke-linecap="round" stroke-linejoin="round"/>
<path d="M68.0493 202.908C66.9646 204.806 62.8209 212.408 66.3403 214.167C68.655 215.325 72.7255 215.152 72.5733 211.956C72.475 209.892 71.0182 206.96 68.6023 208.839C66.1148 210.774 71.2892 211.517 72.523 210.9C73.7299 210.297 74.2273 205.12 72.3722 205.12C70.356 205.12 68.3895 208.779 66.7424 209.845C61.0641 213.519 72.1271 211.007 68.7531 207.633C67.4042 206.284 66.6788 209.674 67.1948 210.448C67.7587 211.294 67.7585 207.463 66.7424 207.432C63.0611 207.32 60.6494 210.306 62.2185 214.117C62.9826 215.973 67.5289 218.078 67.9991 215.022C68.1466 214.063 68.6608 209.269 67.8483 208.538C65.8117 206.705 64.9635 212.281 65.8879 213.514C67.5867 215.779 68.9541 208.126 68.9541 207.432C68.9541 205.854 68.4434 204.722 66.7424 205.723C64.4649 207.062 66.3746 209.318 67.1446 211.051" stroke="black" stroke-width="3" stroke-linecap="round" stroke-linejoin="round"/>
<path d="M96.0977 232.766C92.7555 228.805 89.7447 229.147 85.0392 229.147C80.2246 229.147 80.6968 235.518 83.0285 238.697C85.6173 242.227 86.145 244.33 86.145 248.6C86.145 252.089 80.5941 250.862 78.002 250.862" stroke="black" stroke-width="3" stroke-linecap="round" stroke-linejoin="round"/>
<path d="M122.337 209.241C123.69 216.687 123.241 224.319 123.241 231.861" stroke="black" stroke-width="3" stroke-linecap="round" stroke-linejoin="round"/>
<path d="M145.861 211.956C145.861 221.793 143.993 230.708 141.337 240.004" stroke="black" stroke-width="3" stroke-linecap="round" stroke-linejoin="round"/>
<path d="M114.193 247.242C115.349 253.663 115.732 253.811 121.231 255.888C124.814 257.242 128.724 257.195 132.49 257.195C137.729 257.195 143.004 257.736 147.47 254.481C150.249 252.454 153.508 249.217 156.718 248.147" stroke="black" stroke-width="3" stroke-linecap="round" stroke-linejoin="round"/>
<path d="M211 216.223C230.089 216.223 249.223 216.594 268.31 216.223C276 215.212 281 214.712 288 211.712C292.121 209.946 299.232 205.68 305.113 204" stroke="black" stroke-width="10" stroke-linecap="round" stroke-linejoin="round"/>
<path d="M330 190.174C350.436 179.744 371.938 169.577 389.755 155" stroke="black" stroke-width="10" stroke-linecap="round" stroke-linejoin="round"/>
<path d="M411.796 131.329C426.358 119.097 439.229 103.218 439.229 83.1179" stroke="black" stroke-width="10" stroke-linecap="round" stroke-linejoin="round"/>
<path d="M439.229 61.1174C437.667 51.3544 438.006 41.6464 438.006 31.7833C438.006 28.3093 440.144 0.903389 430.5 6.83819C423.254 11.2974 417.181 21.5094 411.117 27.5733C403.943 34.7473 398.423 40.6759 390.339 46.4503" stroke="black" stroke-width="10" stroke-linecap="round" stroke-linejoin="round"/>
<path d="M434 6.3382C444.866 9.23573 486.557 28.7869 486.557 47.8948" stroke="black" stroke-width="10" stroke-linecap="round" stroke-linejoin="round"/>
</svg>
