<svg width="360" height="320" viewBox="0 0 360 320" fill="none" xmlns="http://www.w3.org/2000/svg">
<rect width="360" height="320" fill="white"/>
<path d="M287 160.5C287 144.711 282.313 129.216 273.435 115.658C264.557 102.099 251.82 90.9834 236.573 83.4879C221.326 75.9925 204.139 72.397 186.832 73.0825C169.525 73.7681 152.744 78.7092 138.269 87.382C123.793 96.0548 112.162 108.136 104.608 122.345C97.0539 136.554 93.8591 152.361 95.362 168.091C96.8648 183.821 103.009 198.887 113.144 211.692C123.279 224.497 137.027 234.564 152.929 240.825L191 160.5H287Z" fill="#FFE6A4"/>
<path d="M287 143.5C287 127.71 282.312 112.214 273.434 98.6559C264.555 85.0974 251.817 73.9813 236.569 66.4862C221.322 58.991 204.133 55.3962 186.826 56.0828C169.518 56.7694 152.737 61.7118 138.262 70.3861C123.786 79.0604 112.156 91.1432 104.603 105.354C97.0508 119.564 93.8579 135.372 95.363 151.102C96.8682 166.833 103.015 181.898 113.153 194.703C123.29 207.507 137.04 217.572 152.944 223.831L191 143.5H287Z" stroke="black" stroke-width="1.25"/>
</svg>
